<svg xmlns="http://www.w3.org/2000/svg" xmlns:xlink="http://www.w3.org/1999/xlink" viewBox="0 0 1923 351"><defs><linearGradient id="Dégradé_sans_nom_69" x1="-132.05" y1="187.5" x2="2107" y2="187.5" gradientUnits="userSpaceOnUse"><stop offset="0" stop-color="#ecf5de"/><stop offset="0.33" stop-color="#e6f1e0"/><stop offset="0.74" stop-color="#d7e5e5"/><stop offset="1" stop-color="#c9dbe9"/></linearGradient></defs><title>Plan de travail 25</title><g id="Calque_18" data-name="Calque 18"><rect x="1846" y="303" width="733" height="1040" transform="translate(4425 1646) rotate(180)" style="fill:#606060"/><path d="M2007,98.56l-81.69-68.35a28.53,28.53,0,0,0-36.61,0L1807,98.56l-29.31,24.52L1703,60.57a26.14,26.14,0,0,0-33.56,0l-82,68.57-26.57,22.23c-18.81-1.47-34.72-3-45.09-4.33-47.51-6.14-111.71-2.88-152.76-1.87s-83.11,15-106.15,22-180.24-7-203.27-14-128.18-12-172.24-14-155.21,12-194.26,21-195.27-5-225.31-16c-18.15-6.65-77.93-6.36-132.15-3.1L250.48,74.81a23.79,23.79,0,0,0-30.51,0l-42.56,35.61-13.9-11.63L81.24,30a25.31,25.31,0,0,0-32.49,0L-33.53,98.79-132,181.21H.18V351.45H1922.8V182.22H2107Z" style="fill:url(#Dégradé_sans_nom_69)"/></g></svg>