<svg xmlns="http://www.w3.org/2000/svg" xmlns:xlink="http://www.w3.org/1999/xlink" viewBox="0 0 1920 1080"><defs><linearGradient id="Dégradé_sans_nom_10" x1="960" y1="3" x2="960" y2="903" gradientUnits="userSpaceOnUse"><stop offset="0" stop-color="#edf5de"/><stop offset="1" stop-color="#c0e9d9"/></linearGradient><linearGradient id="Dégradé_sans_nom_53" x1="-1818.47" y1="1406.51" x2="-2389.53" y2="2975.49" gradientTransform="translate(3064 -1652)" gradientUnits="userSpaceOnUse"><stop offset="0" stop-color="#ecf5de"/><stop offset="0.3" stop-color="#e8efdc"/><stop offset="0.67" stop-color="#dbe0d5"/><stop offset="1" stop-color="#ccc"/></linearGradient></defs><title>fond copie</title><g id="slider"><rect y="3" width="1920" height="900" style="fill:url(#Dégradé_sans_nom_10)"/><rect width="1920" height="1078" transform="translate(1920 1078) rotate(180)" style="fill:url(#Dégradé_sans_nom_53)"/><path d="M207,153c-53.05,0-98.9,22.78-120.61,55.82A178,178,0,0,0,45,204c-74,0-134,44.32-134,99s60,99,134,99c53.05,0,98.9-22.78,120.61-55.82A178,178,0,0,0,207,351c74,0,134-44.32,134-99S281,153,207,153Z" style="fill:#898989;opacity:0.7000000000000001"/><path d="M267.45,131.4a28.91,28.91,0,0,1,37.1,0l456.65,382L1236.4,911H-664.4l475.2-397.56Z" style="fill:#d1d1d1"/><ellipse cx="523" cy="500" rx="134" ry="99" style="fill:#898989;opacity:0.9"/><path id="nuages" d="M1083.75,333c-20.18-35.81-68-61-123.75-61-74,0-134,44.32-134,99,0,47.91,46.06,87.87,107.25,97,20.18,35.81,68,61,123.75,61,74,0,134-44.32,134-99C1191,382.09,1144.94,342.13,1083.75,333Z" style="fill:#898989;opacity:0.67"/><path id="nuages-2" data-name="nuages" d="M1121,453c-47.46,0-89.16,18.23-113,45.73A181.34,181.34,0,0,0,983,497c-74,0-134,44.32-134,99s60,99,134,99c47.46,0,89.16-18.23,113-45.73a181.34,181.34,0,0,0,25,1.73c74,0,134-44.32,134-99S1195,453,1121,453Z" style="fill:#898989;opacity:0.86"/><path id="nuages-3" data-name="nuages" d="M914.24,408.92C901.68,363.87,847.7,330,783,330c-74,0-134,44.32-134,99,0,38.37,29.55,71.65,72.76,88.08C734.32,562.13,788.3,596,853,596c74,0,134-44.32,134-99C987,458.63,957.45,425.35,914.24,408.92Z" style="fill:#898989;opacity:0.86"/><path id="nuages-4" data-name="nuages" d="M581,330c-46.08,0-86.73,17.19-110.84,43.36A180.26,180.26,0,0,0,441,371c-74,0-134,44.32-134,99s60,99,134,99c46.08,0,86.73-17.19,110.84-43.36A180.26,180.26,0,0,0,581,528c74,0,134-44.32,134-99S655,330,581,330Z" style="fill:#898989;opacity:0.7000000000000001"/><path id="nuages-5" data-name="nuages" d="M481,674c0-54.68-60-99-134-99-51.94,0-97,21.84-119.22,53.76C165.83,637.47,119,677.69,119,726c0,54.68,60,99,134,99,51.94,0,97-21.84,119.22-53.76C434.17,762.53,481,722.31,481,674Z" style="fill:#898989;opacity:0.76"/><path id="nuage" d="M304,723c-53.05,0-98.9,22.78-120.61,55.82A178,178,0,0,0,142,774C68,774,8,818.32,8,873s60,99,134,99c53.05,0,98.9-22.78,120.61-55.82A178,178,0,0,0,304,921c74,0,134-44.32,134-99S378,723,304,723Z" style="fill:#898989;opacity:0.56"/><path id="nuages-6" data-name="nuages" d="M1411.75,783c-20.18-35.81-68-61-123.75-61-74,0-134,44.32-134,99,0,47.91,46.06,87.87,107.25,97,20.18,35.81,68,61,123.75,61,74,0,134-44.32,134-99C1519,832.09,1472.94,792.13,1411.75,783Z" style="fill:#898989;opacity:0.67"/><path id="montagne2" d="M1291.32,812.47a23.22,23.22,0,0,1,29.81,0l83.71,70,98.61,82.5H1109l98.61-82.5Z" style="fill:#686868"/><path id="montagne2-2" data-name="montagne2" d="M652.28,344.38a30.73,30.73,0,0,1,39.44,0L1020.5,619.44,1369,911H-25L323.5,619.44Z" style="fill:#bfbfbf"/><path id="nuages-7" data-name="nuages" d="M1718.75,772c-20.18-35.81-68-61-123.75-61-74,0-134,44.32-134,99,0,47.91,46.06,87.87,107.25,97,20.18,35.81,68,61,123.75,61,74,0,134-44.32,134-99C1826,821.09,1779.94,781.13,1718.75,772Z" style="fill:#898989;opacity:0.67"/><path d="M1920,639.44S1649,639,1482,825c-117.34,130.67-79.24,106-79.24,106H1920Z" style="fill:#d1d1d1"/><path id="nuages-8" data-name="nuages" d="M987.75,757c-20.18-35.81-68-61-123.75-61-74,0-134,44.32-134,99,0,47.91,46.06,87.87,107.25,97,20.18,35.81,68,61,123.75,61,74,0,134-44.32,134-99C1095,806.09,1048.94,766.13,987.75,757Z" style="fill:#898989;opacity:0.67"/><rect y="911" width="1397" height="169" style="fill:#686868"/><path id="montagne2-3" data-name="montagne2" d="M700,754.74a23.75,23.75,0,0,1,30.46,0l83.39,69.76L912.45,907H518l98.61-82.5Z" style="fill:#686868"/><path id="montagne2-4" data-name="montagne2" d="M854.21,798.56a23.4,23.4,0,0,1,30,0l83.6,69.94,98.61,82.5H672l98.61-82.5Z" style="fill:#686868"/><path id="montagne2-5" data-name="montagne2" d="M619.45,782.18a28.48,28.48,0,0,1,36.55,0l81.59,68.26L837.45,934H438l99.86-83.54Z" style="fill:#686868"/><path id="montagne2-6" data-name="montagne2" d="M1092.47,778a26.09,26.09,0,0,1,33.51,0l81.86,68.48,98.61,82.5H912l98.61-82.5Z" style="fill:#686868"/><path id="montagne2-7" data-name="montagne2" d="M30,808.77a25.28,25.28,0,0,1,32.45,0l82.16,68.74L243,959.82H-150.55l98.39-82.31Z" style="fill:#686868"/><rect x="1397" y="931" width="523" height="149" style="fill:#d1d1d1"/><rect x="1397" y="920" width="523" height="25" rx="12.5" style="fill:#d1d1d1"/></g></svg>